<svg width="20" height="20" viewBox="0 0 20 20" fill="none" xmlns="http://www.w3.org/2000/svg">
<g clip-path="url(#clip0_224_920)">
<path d="M1.66675 9.99996C1.66675 6.07158 1.66675 4.1074 2.88714 2.88702C4.10752 1.66663 6.07171 1.66663 10.0001 1.66663C13.9284 1.66663 15.8927 1.66663 17.113 2.88702C18.3334 4.1074 18.3334 6.07158 18.3334 9.99996C18.3334 13.9283 18.3334 15.8925 17.113 17.1129C15.8927 18.3333 13.9284 18.3333 10.0001 18.3333C6.07171 18.3333 4.10752 18.3333 2.88714 17.1129C1.66675 15.8925 1.66675 13.9283 1.66675 9.99996Z" stroke="#334155" stroke-width="50"/>
<path d="M10.625 5.41663C10.625 5.07145 10.3452 4.79163 10 4.79163C9.65483 4.79163 9.375 5.07145 9.375 5.41663H10.625ZM15 13.75L15.4419 14.1919C15.686 13.9478 15.686 13.5521 15.4419 13.308L15 13.75ZM13.3081 14.558C13.064 14.8021 13.064 15.1978 13.3081 15.4419C13.5522 15.686 13.9478 15.686 14.1919 15.4419L13.3081 14.558ZM14.1919 12.058C13.9478 11.814 13.5522 11.814 13.3081 12.058C13.064 12.3021 13.064 12.6978 13.3081 12.9419L14.1919 12.058ZM9.375 5.41663V10.4166H10.625V5.41663H9.375ZM13.3333 14.375H15V13.125H13.3333V14.375ZM14.5581 13.308L13.3081 14.558L14.1919 15.4419L15.4419 14.1919L14.5581 13.308ZM15.4419 13.308L14.1919 12.058L13.3081 12.9419L14.5581 14.1919L15.4419 13.308ZM9.375 10.4166C9.375 12.6028 11.1472 14.375 13.3333 14.375V13.125C11.8376 13.125 10.625 11.9124 10.625 10.4166H9.375Z" fill="#334155"/>
<path d="M10.625 5.41663C10.625 5.07145 10.3452 4.79163 10 4.79163C9.65483 4.79163 9.375 5.07145 9.375 5.41663H10.625ZM5 13.75L4.55806 13.308C4.31398 13.5521 4.31398 13.9478 4.55806 14.1919L5 13.75ZM5.80806 15.4419C6.05213 15.686 6.44786 15.686 6.69194 15.4419C6.93601 15.1978 6.93601 14.8021 6.69194 14.558L5.80806 15.4419ZM6.69194 12.9419C6.93601 12.6978 6.93601 12.3021 6.69194 12.058C6.44786 11.814 6.05213 11.814 5.80806 12.058L6.69194 12.9419ZM9.375 5.41663V10.4166H10.625V5.41663H9.375ZM6.66666 13.125H5V14.375H6.66666V13.125ZM4.55806 14.1919L5.80806 15.4419L6.69194 14.558L5.44194 13.308L4.55806 14.1919ZM5.44194 14.1919L6.69194 12.9419L5.80806 12.058L4.55806 13.308L5.44194 14.1919ZM9.375 10.4166C9.375 11.9124 8.16244 13.125 6.66666 13.125V14.375C8.85283 14.375 10.625 12.6028 10.625 10.4166H9.375Z" fill="#5E94FF"/>
</g>
<defs>
<clipPath id="clip0_224_920">
<rect width="20" height="20" fill="white"/>
</clipPath>
</defs>
</svg>
