<svg width="20" height="20" viewBox="0 0 20 20" fill="none" xmlns="http://www.w3.org/2000/svg">
<path d="M7.14282 10.168C7.14282 8.74193 7.14282 8.02889 7.64493 7.58585C8.14703 7.14282 8.95515 7.14282 10.5714 7.14282H12.2857C13.9019 7.14282 14.71 7.14282 15.2121 7.58585C15.7142 8.02889 15.7143 8.74193 15.7143 10.168V12.689C15.7143 14.1151 15.7142 14.8282 15.2121 15.2712C14.71 15.7143 13.9019 15.7143 12.2857 15.7143H10.5714C8.95515 15.7143 8.14703 15.7143 7.64493 15.2712C7.14282 14.8282 7.14282 14.1151 7.14282 12.689V10.168Z" fill="#5E94FF"/>
<path d="M5.99993 14.2858C5.05316 14.2858 4.28564 13.4957 4.28564 12.5211V8.99165C4.28564 6.77327 4.28564 5.66409 4.95511 4.97493C5.62459 4.28577 6.70208 4.28577 8.85707 4.28577H11.1428C12.0896 4.28577 12.8571 5.07585 12.8571 6.05047" stroke="#334155" stroke-width="1.3"/>
</svg>
