<svg width="20" height="20" viewBox="0 0 20 20" fill="none" xmlns="http://www.w3.org/2000/svg">
<path d="M15.2357 6.83582L9.81275 12.2579C9.27273 12.7978 7.66971 13.0479 7.31159 12.6898C6.95348 12.3318 7.19791 10.729 7.73792 10.1891L13.1665 4.7613C13.3004 4.61527 13.4625 4.49788 13.643 4.41621C13.8235 4.33454 14.0187 4.29026 14.2168 4.28609C14.4148 4.28192 14.6117 4.31792 14.7955 4.39193C14.9793 4.46594 15.1462 4.57642 15.2861 4.71669C15.426 4.85696 15.536 5.02412 15.6095 5.20807C15.683 5.39203 15.7186 5.58896 15.7138 5.78701C15.7091 5.98505 15.6643 6.1801 15.5821 6.36036C15.4999 6.54061 15.3821 6.70236 15.2357 6.83582Z" stroke="#5E94FF" stroke-width="1.3" stroke-linecap="round" stroke-linejoin="round"/>
<path d="M9.28564 5.71423H6.50787C5.91849 5.71423 5.3533 5.94836 4.93655 6.36511C4.51981 6.78186 4.28564 7.34708 4.28564 7.93646V13.492C4.28564 14.0814 4.51981 14.6466 4.93655 15.0633C5.3533 15.4801 5.91849 15.7142 6.50787 15.7142H12.619C13.8468 15.7142 14.2856 14.7142 14.2856 13.492V10.7142" stroke="#334155" stroke-width="1.3" stroke-linecap="round" stroke-linejoin="round"/>
</svg>
