<svg width="28" height="30" viewBox="0 0 28 30" fill="none" xmlns="http://www.w3.org/2000/svg">
<path d="M9.94804 25.7413V24.9873H4.29328C3.39381 24.9862 2.53151 24.6283 1.89549 23.9923C1.25947 23.3563 0.90162 22.494 0.900423 21.5945V21.0185C0.897468 20.3011 1.09587 19.5973 1.47308 18.9871C1.85028 18.3769 2.39114 17.8848 3.03415 17.5668C3.32178 17.4231 3.56777 17.2081 3.74861 16.9422C3.92945 16.6764 4.0391 16.3686 4.06709 16.0483L4.73963 8.64434C4.86655 7.24728 5.30489 5.89641 6.02242 4.691C6.73995 3.48559 7.71845 2.45626 8.88602 1.67866C10.0536 0.901052 11.3805 0.39493 12.7694 0.197482C14.1582 3.42801e-05 15.5737 0.116278 16.9117 0.53767C16.4982 1.18066 16.1759 1.87795 15.9541 2.60957C15.3475 2.44878 14.7225 2.36768 14.0949 2.3683C12.3139 2.35995 10.595 3.02244 9.28036 4.22395C7.96569 5.42545 7.15158 7.07789 7.00002 8.85243L6.32899 16.2534C6.2666 16.9579 6.02431 17.6347 5.62535 18.2187C5.22639 18.8028 4.68412 19.2746 4.0505 19.5889C3.78338 19.7205 3.55852 19.9243 3.4015 20.1773C3.24449 20.4303 3.16162 20.7222 3.16233 21.02V21.596C3.16312 21.8956 3.28258 22.1826 3.49455 22.3943C3.70651 22.606 3.99372 22.725 4.29328 22.7254H23.8964C24.1963 22.725 24.4837 22.6058 24.6957 22.3938C24.9077 22.1817 25.027 21.8943 25.0274 21.5945V21.0185C25.0286 20.7214 24.9464 20.4299 24.7902 20.1772C24.634 19.9245 24.41 19.7207 24.1437 19.5889C23.5093 19.2752 22.9661 18.8036 22.5663 18.2195C22.1665 17.6354 21.9236 16.9584 21.8607 16.2534L21.5591 12.9661C22.3066 13.1852 23.0813 13.2974 23.8603 13.2993L24.1106 16.0468C24.141 16.3662 24.2518 16.6727 24.4327 16.9377C24.6136 17.2027 24.8587 17.4176 25.145 17.5623C25.7885 17.8805 26.33 18.3727 26.708 18.9831C27.0859 19.5935 27.2852 20.2975 27.2833 21.0154V21.5915C27.2825 22.4911 26.9248 23.3536 26.2886 23.9897C25.6525 24.6258 24.79 24.9835 23.8904 24.9843H18.2417V25.7413C18.2417 26.8411 17.8048 27.8959 17.0271 28.6736C16.2494 29.4512 15.1947 29.8881 14.0949 29.8881C12.9951 29.8881 11.9403 29.4512 11.1626 28.6736C10.3849 27.8959 9.94804 26.8411 9.94804 25.7413ZM12.2099 25.7413C12.2099 26.2412 12.4085 26.7207 12.762 27.0742C13.1155 27.4277 13.595 27.6262 14.0949 27.6262C14.5948 27.6262 15.0742 27.4277 15.4277 27.0742C15.7812 26.7207 15.9798 26.2412 15.9798 25.7413V24.9873H12.2099V25.7413ZM23.5903 10.2759C22.7687 10.2285 21.9697 9.98887 21.2576 9.57624L21.1912 8.85243C21.0302 6.98598 20.1367 5.25922 18.7061 4.04965C18.85 3.27786 19.1642 2.54788 19.626 1.91291C20.7046 2.69878 21.6031 3.70575 22.2615 4.86656C22.9199 6.02736 23.3231 7.31529 23.4441 8.64434L23.5949 10.2744L23.5903 10.2759Z" fill="white"/>
</svg>
