<svg width="30" height="30" viewBox="0 0 30 30" fill="none" xmlns="http://www.w3.org/2000/svg">
<path d="M17.5 3.4375C19.8835 3.4375 21.5769 3.43949 22.8615 3.6122C24.119 3.78129 24.8436 4.09836 25.3726 4.62738C25.9815 5.2363 26.2466 5.70833 26.3934 6.5498C26.5589 7.49825 26.5625 8.85115 26.5625 11.25C26.5625 11.7678 26.9823 12.1875 27.5 12.1875C28.0177 12.1875 28.4375 11.7678 28.4375 11.25V11.1296C28.4376 8.88063 28.4376 7.35714 28.2405 6.22749C28.0212 4.97081 27.554 4.1571 26.6985 3.30155C25.763 2.3661 24.5769 1.95095 23.1113 1.75393C21.6873 1.56246 19.8678 1.56248 17.5705 1.5625H17.5C16.9822 1.5625 16.5625 1.98224 16.5625 2.5C16.5625 3.01776 16.9822 3.4375 17.5 3.4375Z" fill="#2A4376"/>
<path d="M2.50001 17.8125C3.01778 17.8125 3.43751 18.2322 3.43751 18.75C3.43751 21.1489 3.44111 22.5017 3.60661 23.4503C3.75344 24.2916 4.01846 24.7637 4.62739 25.3726C5.1564 25.9016 5.88095 26.2188 7.13856 26.3878C8.42315 26.5605 10.1165 26.5625 12.5 26.5625C13.0178 26.5625 13.4375 26.9822 13.4375 27.5C13.4375 28.0177 13.0178 28.4375 12.5 28.4375H12.4295C10.1323 28.4375 8.31275 28.4375 6.88873 28.2461C5.4232 28.049 4.23701 27.6339 3.30156 26.6985C2.44601 25.8429 1.9788 25.0291 1.75953 23.7725C1.5624 22.6429 1.56244 21.1194 1.5625 18.8705L1.56251 18.75C1.56251 18.2322 1.98224 17.8125 2.50001 17.8125Z" fill="#2A4376"/>
<path d="M27.5 17.8125C28.0177 17.8125 28.4375 18.2322 28.4375 18.75V18.8704C28.4376 21.1194 28.4376 22.6429 28.2405 23.7725C28.0212 25.0291 27.554 25.8429 26.6985 26.6985C25.763 27.6339 24.5769 28.049 23.1113 28.2461C21.6873 28.4375 19.8678 28.4375 17.5705 28.4375H17.5C16.9822 28.4375 16.5625 28.0177 16.5625 27.5C16.5625 26.9822 16.9822 26.5625 17.5 26.5625C19.8835 26.5625 21.5769 26.5605 22.8615 26.3878C24.119 26.2188 24.8436 25.9016 25.3726 25.3726C25.9815 24.7637 26.2466 24.2916 26.3934 23.4503C26.5589 22.5017 26.5625 21.1489 26.5625 18.75C26.5625 18.2322 26.9823 17.8125 27.5 17.8125Z" fill="#2A4376"/>
<path d="M12.4295 1.5625H12.5C13.0178 1.5625 13.4375 1.98224 13.4375 2.5C13.4375 3.01776 13.0178 3.4375 12.5 3.4375C10.1165 3.4375 8.42315 3.43949 7.13856 3.6122C5.88095 3.78129 5.1564 4.09836 4.62739 4.62738C4.01846 5.2363 3.75344 5.70833 3.60661 6.5498C3.44111 7.49825 3.43751 8.85115 3.43751 11.25C3.43751 11.7678 3.01778 12.1875 2.50001 12.1875C1.98224 12.1875 1.56251 11.7678 1.56251 11.25L1.5625 11.1296C1.56244 8.88066 1.5624 7.35712 1.75953 6.22749C1.9788 4.97081 2.44601 4.1571 3.30156 3.30155C4.23701 2.3661 5.4232 1.95095 6.88873 1.75393C8.31274 1.56246 10.1323 1.56248 12.4295 1.5625Z" fill="#2A4376"/>
<path d="M15 13.4375C14.137 13.4375 13.4375 14.137 13.4375 15C13.4375 15.863 14.137 16.5625 15 16.5625C15.863 16.5625 16.5625 15.863 16.5625 15C16.5625 14.137 15.863 13.4375 15 13.4375Z" fill="#1C274C"/>
<path fill-rule="evenodd" clip-rule="evenodd" d="M7.36554 17.5747C6.62184 16.7121 6.25 16.2807 6.25 15C6.25 13.7192 6.62185 13.2879 7.36552 12.4253C8.85046 10.7028 11.3408 8.75 15 8.75C18.6591 8.75 21.1495 10.7028 22.6345 12.4253C23.3781 13.2879 23.75 13.7192 23.75 15C23.75 16.2807 23.3781 16.7121 22.6345 17.5747C21.1495 19.2972 18.6591 21.25 15 21.25C11.3408 21.25 8.85047 19.2972 7.36554 17.5747ZM11.5625 15C11.5625 13.1015 13.1015 11.5625 15 11.5625C16.8985 11.5625 18.4375 13.1015 18.4375 15C18.4375 16.8985 16.8985 18.4375 15 18.4375C13.1015 18.4375 11.5625 16.8985 11.5625 15Z" fill="#5E94FF"/>
</svg>
